<?xml version="1.0" encoding="utf-8"?>
<!-- Generator: Adobe Illustrator 24.0.1, SVG Export Plug-In . SVG Version: 6.00 Build 0)  -->
<svg version="1.1" id="Layer_1" xmlns="http://www.w3.org/2000/svg" xmlns:xlink="http://www.w3.org/1999/xlink" x="0px" y="0px"
	 viewBox="0 0 2080 1489.9" style="enable-background:new 0 0 2080 1489.9;" xml:space="preserve">
<style type="text/css">
	.st0{display:none;}
	.st1{display:none;stroke:#FFFFFF;stroke-miterlimit:10;}
	.st2{fill:#FFFFFF;}
	.st3{fill:url(#Squares_1_);}
	.st4{enable-background:new    ;}
	.st5{fill:#FFFFFF;stroke:#FFFFFF;stroke-width:0.8504;stroke-miterlimit:10;}
	.st6{fill:none;stroke:#FFFFFF;stroke-width:1.9843;stroke-miterlimit:10;}
	.st7{fill:#FFFFFF;stroke:#FFFFFF;stroke-width:1.9843;stroke-miterlimit:10;}
	.st8{fill:none;stroke:#FFFFFF;stroke-width:1.9843;stroke-linecap:round;stroke-miterlimit:10;}
</style>
<rect x="-354.4" y="-237.5" class="st0" width="3210.4" height="1888.9"/>
<rect x="-307.8" y="-130.2" class="st1" width="3447.5" height="2592"/>
<g>
	<rect id="Line" x="34.9" y="1432.3" class="st2" width="642.8" height="5.4"/>
	
		<linearGradient id="Squares_1_" gradientUnits="userSpaceOnUse" x1="43.7" y1="1796.95" x2="684.9" y2="1796.95" gradientTransform="matrix(1 0 0 1 0 -428)">
		<stop  offset="0" style="stop-color:#000000"/>
		<stop  offset="0" style="stop-color:#EE5F2B"/>
		<stop  offset="9.108678e-02" style="stop-color:#E75C2A"/>
		<stop  offset="0.2275" style="stop-color:#D25426"/>
		<stop  offset="0.3922" style="stop-color:#B14720"/>
		<stop  offset="0.5791" style="stop-color:#823418"/>
		<stop  offset="0.7847" style="stop-color:#471C0D"/>
		<stop  offset="1" style="stop-color:#000000"/>
	</linearGradient>
	<path id="Squares" class="st3" d="M43.7,1329.7v78.5h84.9v-78.5H43.7z M166.8,1329.7v78.5h84.9v-78.5H166.8z M290,1329.7v78.5h84.9
		v-78.5H290z M413.1,1329.7v78.5H498v-78.5H413.1z M536.3,1329.7v78.5h84.9v-78.5H536.3z M659.4,1329.7v78.5h20.1
		c0.6-3.3,1.3-6.5,2.2-9.4c0.4-2.5,1.3-4.9,2.1-7.4c0-1.9,0.1-5,0.2-9.1l0,0c0.2-11.3,0.5-30,0.9-52.6H659.4z"/>
</g>
<g>
	<g class="st4">
		<path class="st5" d="M93,602.1h2.2v77.5H93V664h-0.2c-1.4,5-4.1,9-7.9,12c-3.8,3.2-8.6,4.9-14.4,4.9c-7.4-0.2-13.2-3-17.3-8.4
			c-4.3-5.3-6.4-12.2-6.4-20.7c0-8.1,2.1-15,6.2-20.6c4.1-5.7,9.9-8.6,17.6-8.7c12.1,0.3,19.5,5.9,22.3,16.9H93V602.1z M93,651.9
			c-0.4-17.9-7.9-27-22.5-27.2c-7.5,0.1-13,3-16.4,8.6c-3.4,5.5-5.1,11.7-5.1,18.6c0,7.4,1.8,13.7,5.4,18.8c3.6,5.4,9,8.1,16.1,8.2
			c7.2-0.1,12.8-2.8,16.7-8.2C90.9,665.5,92.9,659.3,93,651.9z"/>
		<path class="st5" d="M108.6,652.2c0.1,7.7,1.8,14,5.2,18.9c3.4,5.1,9,7.7,16.8,7.8c12.1-0.1,19.3-6.3,21.7-18.6h2.2
			c-0.8,6.5-3.4,11.5-7.6,15.1c-4.3,3.6-9.6,5.5-16.1,5.6c-8.5-0.1-14.7-2.9-18.5-8.4c-4-5.4-5.9-12.4-5.9-20.8
			c0.1-9.4,2.7-16.7,7.6-21.6c4.7-5.1,10.3-7.6,16.8-7.6c8.7,0.1,15,3.1,18.9,9c4,5.8,5.8,12.7,5.4,20.6H108.6z M153.1,650.1
			c0.1-7.1-1.7-13.1-5.4-18s-9.3-7.3-16.6-7.4c-6.1,0.1-11.2,2.3-15.4,6.8c-4.1,4.4-6.4,10.7-7,18.6L153.1,650.1L153.1,650.1z"/>
		<path class="st5" d="M202,640.3c-0.1-5.6-1.7-9.6-5-12.1c-3.2-2.4-7.6-3.6-12.9-3.6c-3.8,0-6.9,0.5-9.1,1.4c-2.3,1-3.9,2.3-5,3.7
			s-1.7,2.7-2,3.9c-0.4,1.3-0.6,2.2-0.6,2.8c0,2.7,0.6,4.8,1.7,6.3c1.1,1.6,2.6,2.7,4.4,3.5c3.8,1.3,8.5,2.7,14.3,4.1
			c2.3,0.5,4.4,1.1,6.5,1.8c2.1,0.6,4,1.4,5.8,2.5c1.7,1,3.1,2.4,4.1,4.1c1,1.7,1.5,3.9,1.5,6.6c-0.1,5.5-2.3,9.5-6.4,11.9
			c-4,2.4-8.6,3.6-13.8,3.6c-15,0.1-22.5-6.7-22.5-20.4h2.2c0.1,12.2,6.9,18.3,20.4,18.2c4.3,0,8.3-1,12.1-3.1
			c3.8-2,5.8-5.4,5.9-10.1c0-2.5-0.5-4.5-1.5-6.1c-1.1-1.5-2.6-2.7-4.4-3.7c-1.7-1-3.8-1.8-6.1-2.4c-1.1-0.4-2.3-0.7-3.5-1
			c-1.2-0.2-2.4-0.4-3.7-0.6c-5.2-1.2-9.4-2.5-12.5-3.8c-4.5-1.8-6.7-5.6-6.7-11.5c-0.1-3.3,1.4-6.4,4.3-9.3
			c1.5-1.5,3.5-2.6,5.9-3.5c2.4-0.8,5.3-1.2,8.7-1.2c13.1-0.1,19.8,5.8,20.1,17.8H202V640.3z"/>
		<path class="st5" d="M219.7,613h-2.2v-10.9h2.2V613z M219.7,679.6h-2.2v-55.8h2.2V679.6z"/>
		<path class="st5" d="M274.4,661h-0.2c-1.2,4.9-3.9,8.7-8.1,11.4c-4.2,2.8-8.8,4.2-13.8,4.2c-7.7-0.1-13.5-2.8-17.4-8.1
			c-3.9-5.1-5.9-11.3-5.9-18.7c0-7.7,2.1-14.1,6.2-19.4c4.1-5.3,10-7.9,17.8-8c5.5,0.1,10.1,1.6,13.8,4.6c3.8,3,6.2,6.9,7.4,11.6
			h0.2v-14.9h2.2v54c-0.2,15-7.9,22.4-23.2,22.4c-5.8,0-10.7-1.4-14.6-4.2c-4.1-2.8-6.3-7.2-6.6-13.3h2.2c0.4,5.5,2.3,9.4,5.9,11.8
			c3.6,2.4,7.9,3.6,13,3.6c14,0.1,21-6.7,21.1-20.3V661z M274.3,649.9c0.1-6.7-1.7-12.5-5.3-17.5c-3.5-5-8.9-7.6-16-7.7
			c-7.2,0.1-12.6,2.5-16.3,7.4s-5.6,10.8-5.6,17.9c0,6.9,1.8,12.8,5.5,17.4c3.6,4.7,8.8,7.1,15.6,7.2c7.2-0.1,12.7-2.5,16.5-7.3
			C272.4,662.5,274.3,656.8,274.3,649.9z"/>
		<path class="st5" d="M290.1,623.8h2.2v13.8h0.2c1.1-4.4,3.3-8,6.8-10.9c3.4-2.8,7.8-4.2,13.2-4.3c6,0,10.8,1.7,14.3,5.1
			c3.6,3.5,5.4,8.5,5.5,15v37h-2.2v-36.7c-0.1-6.4-1.8-11.1-5.2-14c-3.4-2.8-7.5-4.2-12.4-4.2c-6.7,0.1-11.7,2.5-15.1,7
			c-3.5,4.6-5.2,10-5.2,16.4v31.6H290v-55.8H290.1z"/>
		<path class="st5" d="M344.9,652.2c0.1,7.7,1.8,14,5.2,18.9c3.4,5.1,9,7.7,16.8,7.8c12.1-0.1,19.3-6.3,21.7-18.6h2.2
			c-0.8,6.5-3.4,11.5-7.6,15.1c-4.3,3.6-9.6,5.5-16.1,5.6c-8.5-0.1-14.7-2.9-18.5-8.4c-4-5.4-5.9-12.4-5.9-20.8
			c0.1-9.4,2.7-16.7,7.6-21.6c4.7-5.1,10.3-7.6,16.8-7.6c8.7,0.1,15,3.1,18.9,9c4,5.8,5.8,12.7,5.4,20.6H344.9z M389.4,650.1
			c0.1-7.1-1.7-13.1-5.4-18c-3.7-4.9-9.3-7.3-16.6-7.4c-6.1,0.1-11.2,2.3-15.4,6.8c-4.1,4.4-6.4,10.7-7,18.6L389.4,650.1
			L389.4,650.1z"/>
		<path class="st5" d="M404.2,679.6H402v-55.8h2.2v13.8h0.2c1-4.2,3.3-7.8,6.8-10.8s8.5-4.4,15-4.2v2.1c-7.6-0.1-13.2,2.1-16.7,6.7
			c-3.6,4.7-5.4,10.3-5.4,16.6v31.6H404.2z"/>
	</g>
	<g>
		<path class="st5" d="M116.6,767.7h2.2L101,823.5h-2.8l-17.4-53.7h-0.2l-17.4,53.7h-3.1l-17.3-55.8H45l16.6,53.7h0.2L79,767.7h3.3
			l17.1,53.7h0.2L116.6,767.7z"/>
		<path class="st5" d="M128.5,823.5h-2.2v-55.8h2.2v13.8h0.2c1-4.2,3.3-7.8,6.8-10.8s8.5-4.4,15-4.2v2.1c-7.6-0.1-13.2,2.1-16.7,6.7
			c-3.6,4.7-5.4,10.3-5.4,16.6L128.5,823.5L128.5,823.5z"/>
		<path class="st5" d="M157.4,756.9h-2.2V746h2.2V756.9z M157.4,823.5h-2.2v-55.8h2.2V823.5z"/>
		<path class="st5" d="M175.7,769.8v42.9c0.1,4,0.9,6.5,2.6,7.4c0.8,0.5,1.7,0.9,2.5,1c0.8,0.2,1.6,0.3,2.4,0.3c2.4,0,4-0.1,4.8-0.3
			v2.1c-0.6,0-1.2,0-1.9,0.1s-1.8,0.2-3.5,0.2c-2.5,0-4.6-0.8-6.4-2.3c-0.8-0.9-1.4-2-1.9-3.2c-0.6-1.3-0.9-3-0.9-4.9v-43.3h-10.3
			v-2.1h10.3v-17.6h2.2v17.6h12.6v2.1H175.7z"/>
		<path class="st5" d="M195.7,796.1c0.1,7.7,1.8,14,5.2,18.9c3.4,5.1,9,7.7,16.8,7.8c12.1-0.1,19.3-6.3,21.7-18.6h2.2
			c-0.8,6.5-3.4,11.5-7.6,15.1c-4.3,3.6-9.6,5.5-16.1,5.6c-8.5-0.1-14.7-2.9-18.5-8.4c-4-5.4-5.9-12.4-5.9-20.8
			c0.1-9.4,2.7-16.7,7.6-21.6c4.7-5.1,10.3-7.6,16.8-7.6c8.7,0.1,15,3.1,18.9,9c4,5.8,5.8,12.7,5.4,20.6H195.7z M240.1,794
			c0.1-7.1-1.7-13.1-5.4-18s-9.3-7.3-16.6-7.4c-6.1,0.1-11.2,2.3-15.4,6.8c-4.1,4.4-6.4,10.7-7,18.6L240.1,794L240.1,794z"/>
		<path class="st5" d="M254.9,823.5h-2.2v-55.8h2.2v13.8h0.2c1-4.2,3.3-7.8,6.8-10.8s8.5-4.4,15-4.2v2.1c-7.6-0.1-13.2,2.1-16.7,6.7
			c-3.6,4.7-5.4,10.3-5.4,16.6v31.6H254.9z"/>
		<path class="st5" d="M43.7,798.3v-5.4h232v5.4H43.7z"/>
	</g>
	<g class="st4">
		<path class="st5" d="M51.8,900.8h-2.2v-10.9h2.2V900.8z M51.8,967.4h-2.2v-55.8h2.2V967.4z"/>
		<path class="st5" d="M64.2,889.9h2.2v77.5h-2.2V889.9z"/>
		<path class="st5" d="M78.7,889.9h2.2v77.5h-2.2V889.9z"/>
		<path class="st5" d="M135.5,967.4h-2.2v-13.8l-0.2-0.1c-1,4.4-3.2,8-6.6,10.8s-7.9,4.3-13.5,4.4c-5.8-0.1-10.6-1.9-14.2-5.4
			c-3.7-3.4-5.6-8.3-5.6-14.8v-37h2.2v36.8c0.1,6.4,1.8,11,5.3,13.9c3.4,2.9,7.5,4.4,12.3,4.4c6.7-0.1,11.8-2.5,15.2-7.2
			c3.4-4.4,5.1-9.8,5.1-16.2v-31.6h2.2L135.5,967.4L135.5,967.4z"/>
		<path class="st5" d="M185.5,928.1c-0.1-5.6-1.7-9.6-5-12.1c-3.2-2.4-7.6-3.6-12.9-3.6c-3.8,0-6.9,0.5-9.1,1.4
			c-2.3,1-3.9,2.3-5,3.7s-1.7,2.7-2,3.9c-0.4,1.3-0.6,2.2-0.6,2.8c0,2.7,0.6,4.8,1.7,6.3c1.1,1.6,2.6,2.7,4.4,3.5
			c3.8,1.3,8.5,2.7,14.3,4.1c2.3,0.5,4.4,1.1,6.5,1.8c2.1,0.6,4,1.4,5.8,2.5c1.7,1,3.1,2.4,4.1,4.1c1,1.7,1.5,3.9,1.5,6.6
			c-0.1,5.5-2.3,9.5-6.4,11.9c-4,2.4-8.6,3.6-13.8,3.6c-15,0.1-22.5-6.7-22.5-20.4h2.2c0.1,12.2,6.9,18.3,20.4,18.2
			c4.3,0,8.3-1,12.1-3.1c3.8-2,5.8-5.4,5.9-10.1c0-2.5-0.5-4.5-1.5-6.1c-1.1-1.5-2.6-2.7-4.4-3.7c-1.7-1-3.8-1.8-6.1-2.4
			c-1.1-0.4-2.3-0.7-3.5-1c-1.2-0.2-2.4-0.4-3.7-0.6c-5.2-1.2-9.4-2.5-12.5-3.8c-4.5-1.8-6.7-5.6-6.7-11.5c-0.1-3.3,1.4-6.4,4.3-9.3
			c1.5-1.5,3.5-2.6,5.9-3.5c2.4-0.8,5.3-1.2,8.7-1.2c13.1-0.1,19.8,5.8,20.1,17.8h-2.2V928.1z"/>
		<path class="st5" d="M206.9,913.7v42.9c0.1,4,0.9,6.5,2.6,7.4c0.8,0.5,1.7,0.9,2.5,1c0.8,0.2,1.6,0.3,2.4,0.3c2.4,0,4-0.1,4.8-0.3
			v2.1c-0.6,0-1.2,0-1.9,0.1s-1.8,0.2-3.5,0.2c-2.5,0-4.6-0.8-6.4-2.3c-0.8-0.9-1.4-2-1.9-3.2c-0.6-1.3-0.9-3-0.9-4.9v-43.3h-10.3
			v-2.1h10.3V894h2.2v17.6h12.6v2.1L206.9,913.7L206.9,913.7z"/>
		<path class="st5" d="M230.1,967.4H228v-55.8h2.2v13.8h0.2c1-4.2,3.3-7.8,6.8-10.8s8.5-4.4,15-4.2v2.1c-7.6-0.1-13.2,2.1-16.7,6.8
			c-3.6,4.7-5.4,10.3-5.4,16.6V967.4z"/>
		<path class="st5" d="M256.9,928.9c0.3-5.4,2.2-9.9,5.7-13.3c3.4-3.4,8.6-5.1,15.5-5.2c5.1-0.1,9.4,1,12.9,3.3
			c3.4,2.4,5.2,6.6,5.5,12.6v35.6c0.1,1.9,0.9,3.1,2.5,3.3c0.7,0.1,1.4,0.2,2.3,0.2c0.8-0.1,1.6-0.1,2.3-0.1v2.1c-1,0-2,0-3-0.1
			c-1.1,0-2.1-0.1-3-0.4c-2.1-0.6-3.1-2.2-3.2-4.9v-7.3h-0.2c-1.2,3.7-3.7,6.9-7.5,9.7c-4,2.8-8.9,4.3-14.7,4.3
			c-5.6,0-10.1-1.3-13.4-3.9c-3.4-2.5-5.1-6.3-5.2-11.2c0-3.5,0.6-6.3,1.7-8.5c1.1-2.1,2.6-3.7,4.4-4.9c1.9-1.2,3.9-2,6.2-2.5
			c2.2-0.5,4.5-0.8,6.8-0.8c3.9-0.2,7.2-0.5,10-0.7s5-0.6,6.7-1.1s3-1.4,3.9-2.5c0.8-1.2,1.2-2.8,1.2-4.8c0-1.8-0.1-3.6-0.3-5.4
			c-0.4-1.8-1.1-3.5-2.2-5c-1-1.6-2.6-2.8-4.7-3.7c-2.3-0.9-5.2-1.4-9-1.4c-11.7,0.1-18.1,5.6-19,16.5L256.9,928.9z M294.3,934.7
			h-0.2c-0.6,0.9-1.7,1.7-3.1,2.3c-1.5,0.6-3.3,0.9-5.3,1.2c-4,0.4-8.4,0.8-13.1,1c-2.2,0.1-4.3,0.3-6.2,0.7c-2,0.5-3.9,1.3-5.6,2.3
			c-1.7,0.9-2.9,2.3-3.8,4.3c-1,1.8-1.5,4.2-1.5,7.3c0,1.5,0.3,3.1,1,4.7c0.5,1.5,1.4,2.9,2.8,4.1c2.4,2.7,6.5,4.1,12.5,4.1
			c7.3-0.1,12.9-2.3,16.8-6.8c3.8-4.3,5.7-9.3,5.7-14.9L294.3,934.7L294.3,934.7z"/>
		<path class="st5" d="M316.7,913.7v42.9c0.1,4,0.9,6.5,2.6,7.4c0.8,0.5,1.7,0.9,2.5,1c0.8,0.2,1.6,0.3,2.4,0.3c2.4,0,4-0.1,4.8-0.3
			v2.1c-0.6,0-1.2,0-1.9,0.1c-0.7,0.1-1.8,0.2-3.5,0.2c-2.5,0-4.6-0.8-6.4-2.3c-0.8-0.9-1.4-2-1.9-3.2c-0.6-1.3-0.9-3-0.9-4.9v-43.3
			h-10.3v-2.1h10.3V894h2.2v17.6h12.6v2.1L316.7,913.7L316.7,913.7z"/>
		<path class="st5" d="M334.8,939.5c0-7.9,2.2-14.7,6.5-20.4s10.5-8.7,18.6-8.8c8.2,0.1,14.4,3.1,18.7,8.8
			c4.2,5.7,6.4,12.5,6.4,20.4c0,7.8-2.1,14.6-6.4,20.3c-4.3,5.8-10.5,8.7-18.8,8.9c-8.1-0.2-14.3-3.1-18.5-8.9
			C336.9,954.1,334.8,947.4,334.8,939.5z M337,939.5c0,7.3,2,13.6,6,18.8c3.8,5.4,9.5,8.1,17,8.3c7.5-0.1,13.2-2.9,17.1-8.3
			c3.8-5.2,5.8-11.5,5.8-18.8s-1.9-13.6-5.8-18.9c-3.9-5.3-9.6-8.1-17.1-8.2c-7.5,0.1-13.2,2.9-17,8.2
			C338.9,926,337,932.3,337,939.5z"/>
		<path class="st5" d="M398,967.4h-2.2v-55.8h2.2v13.8h0.2c1-4.2,3.3-7.8,6.8-10.8s8.5-4.4,15-4.2v2.1c-7.6-0.1-13.2,2.1-16.7,6.8
			c-3.6,4.7-5.4,10.3-5.4,16.6v31.5H398z"/>
	</g>
	<g class="st4">
		<path class="st5" d="M43.5,1057.6v-2.1h9.6v-12.4c0.1-4.3,1.3-7,3.8-8.1c2.3-0.9,4.7-1.3,7.2-1.3c1.9,0.1,3.5,0.2,4.7,0.4v2.1
			c-1.9-0.3-3.6-0.4-5.1-0.4c-3.4,0-5.6,0.6-6.7,1.9c-1.2,1.3-1.7,3.3-1.6,6.1v11.6h12v2.1h-12v53.7h-2.2v-53.7h-9.7V1057.6z"/>
		<path class="st5" d="M74.7,1111.3h-2.2v-55.8h2.2v13.8h0.2c1-4.2,3.3-7.8,6.8-10.8s8.5-4.4,15-4.2v2.1c-7.6-0.1-13.2,2.1-16.7,6.7
			c-3.6,4.7-5.4,10.3-5.4,16.6L74.7,1111.3L74.7,1111.3z"/>
		<path class="st5" d="M98.5,1083.4c0-7.9,2.2-14.7,6.5-20.4c4.3-5.7,10.5-8.7,18.6-8.8c8.2,0.1,14.4,3.1,18.7,8.8
			c4.2,5.7,6.4,12.5,6.4,20.4c0,7.8-2.1,14.6-6.4,20.3c-4.3,5.8-10.5,8.7-18.8,8.9c-8.1-0.2-14.3-3.1-18.5-8.9
			C100.7,1098,98.5,1091.3,98.5,1083.4z M100.7,1083.4c0,7.3,2,13.6,6,18.8c3.8,5.4,9.5,8.1,17,8.3c7.5-0.1,13.2-2.9,17.1-8.3
			c3.8-5.2,5.8-11.5,5.8-18.8s-1.9-13.6-5.8-18.9c-3.9-5.3-9.6-8.1-17.1-8.2c-7.5,0.1-13.2,2.9-17,8.2
			C102.7,1069.9,100.7,1076.2,100.7,1083.4z"/>
		<path class="st5" d="M159.5,1055.5h2.2v13.8h0.2c1.1-4.4,3.3-8,6.8-10.9c3.4-2.8,7.8-4.2,13.2-4.3c6,0,10.8,1.7,14.3,5.1
			c3.6,3.5,5.4,8.5,5.5,15v37h-2.2v-36.7c-0.1-6.4-1.8-11.1-5.2-14c-3.4-2.8-7.5-4.2-12.4-4.2c-6.7,0.1-11.7,2.5-15.1,7
			c-3.5,4.6-5.2,10-5.2,16.4v31.6h-2.2L159.5,1055.5L159.5,1055.5z"/>
		<path class="st5" d="M221.4,1057.6v42.9c0.1,4,0.9,6.5,2.6,7.4c0.8,0.5,1.7,0.9,2.5,1c0.8,0.2,1.6,0.3,2.4,0.3
			c2.4,0,4-0.1,4.8-0.3v2.1c-0.6,0-1.2,0-1.9,0.1s-1.8,0.2-3.5,0.2c-2.5,0-4.6-0.8-6.4-2.3c-0.8-0.9-1.4-2-1.9-3.2
			c-0.6-1.3-0.9-3-0.9-4.9v-43.3h-10.3v-2.1h10.3v-17.6h2.2v17.6H234v2.1L221.4,1057.6L221.4,1057.6z"/>
		<path class="st5" d="M245.1,1081.2H264v2.1h-18.9V1081.2z"/>
		<path class="st5" d="M278.6,1083.9c0.1,7.7,1.8,14,5.2,18.9c3.4,5.1,9,7.7,16.8,7.8c12.1-0.1,19.3-6.3,21.7-18.6h2.2
			c-0.8,6.5-3.4,11.5-7.6,15.1c-4.3,3.6-9.6,5.5-16.1,5.6c-8.5-0.1-14.7-2.9-18.5-8.4c-4-5.4-5.9-12.4-5.9-20.8
			c0.1-9.4,2.7-16.7,7.6-21.6c4.7-5.1,10.3-7.6,16.8-7.6c8.7,0.1,15,3.1,18.9,9c4,5.8,5.8,12.7,5.4,20.6H278.6z M323,1081.8
			c0.1-7.1-1.7-13.1-5.4-18c-3.7-4.9-9.3-7.3-16.6-7.4c-6.1,0.1-11.2,2.3-15.4,6.8c-4.1,4.4-6.4,10.7-7,18.6H323z"/>
		<path class="st5" d="M335.7,1055.5h2.2v13.8h0.2c1.1-4.4,3.3-8,6.8-10.9c3.4-2.8,7.8-4.2,13.2-4.3c6,0,10.8,1.7,14.3,5.1
			c3.6,3.5,5.4,8.5,5.5,15v37h-2.2v-36.7c-0.1-6.4-1.8-11.1-5.2-14c-3.4-2.8-7.5-4.2-12.4-4.2c-6.7,0.1-11.7,2.5-15.1,7
			c-3.5,4.6-5.2,10-5.2,16.4v31.6h-2.2v-55.8H335.7z"/>
		<path class="st5" d="M434.9,1033.8h2.2v77.5h-2.2v-15.7h-0.2c-1.4,5-4.1,9-7.9,12c-3.8,3.2-8.6,4.9-14.4,4.9
			c-7.4-0.2-13.2-3-17.3-8.4c-4.3-5.3-6.4-12.2-6.4-20.7c0-8.1,2.1-15,6.2-20.6c4.1-5.7,9.9-8.6,17.6-8.7
			c12.1,0.3,19.5,5.9,22.3,16.9h0.2v-37.2H434.9z M434.9,1083.6c-0.4-17.9-7.9-27-22.5-27.2c-7.5,0.1-13,3-16.4,8.6
			c-3.4,5.5-5.1,11.7-5.1,18.6c0,7.4,1.8,13.7,5.4,18.8c3.6,5.4,9,8.1,16.1,8.2c7.2-0.1,12.8-2.8,16.7-8.2
			C432.9,1097.2,434.9,1091,434.9,1083.6z"/>
		<path class="st5" d="M526.1,1033.8h2.2v77.5h-2.2v-15.7h-0.2c-1.4,5-4.1,9-7.9,12c-3.8,3.2-8.6,4.9-14.4,4.9
			c-7.4-0.2-13.2-3-17.3-8.4c-4.3-5.3-6.4-12.2-6.4-20.7c0-8.1,2.1-15,6.2-20.6c4.1-5.7,9.9-8.6,17.6-8.7
			c12.1,0.3,19.5,5.9,22.3,16.9h0.2v-37.2H526.1z M526.1,1083.6c-0.4-17.9-7.9-27-22.5-27.2c-7.5,0.1-13,3-16.4,8.6
			c-3.4,5.5-5.1,11.7-5.1,18.6c0,7.4,1.8,13.7,5.4,18.8c3.6,5.4,9,8.1,16.1,8.2c7.2-0.1,12.8-2.8,16.7-8.2
			C524.1,1097.2,526,1091,526.1,1083.6z"/>
		<path class="st5" d="M541.8,1083.9c0.1,7.7,1.8,14,5.2,18.9c3.4,5.1,9,7.7,16.8,7.8c12.1-0.1,19.3-6.3,21.7-18.6h2.2
			c-0.8,6.5-3.4,11.5-7.6,15.1c-4.3,3.6-9.6,5.5-16.1,5.6c-8.5-0.1-14.7-2.9-18.5-8.4c-4-5.4-5.9-12.4-5.9-20.8
			c0.1-9.4,2.7-16.7,7.6-21.6c4.7-5.1,10.3-7.6,16.8-7.6c8.7,0.1,15,3.1,18.9,9c4,5.8,5.8,12.7,5.4,20.6H541.8z M586.2,1081.8
			c0.1-7.1-1.7-13.1-5.4-18s-9.3-7.3-16.6-7.4c-6.1,0.1-11.2,2.3-15.4,6.8c-4.1,4.4-6.4,10.7-7,18.6H586.2z"/>
		<path class="st5" d="M635.8,1055.5h2.4l-21,55.8h-2.7l-23-55.8h2.6l21.5,53.7h0.2L635.8,1055.5z"/>
	</g>
	<g>
		<path class="st5" d="M48.5,1199.4h2.2v13.8h0.2c1.2-4.4,3.4-8,6.7-10.9c3.2-2.8,7.1-4.2,11.6-4.3c9.2,0.1,15,4.4,17.2,13.1h0.2
			c0.6-2,1.5-3.8,2.7-5.5c1.2-1.6,2.6-2.9,4.2-4c3.2-2.3,7-3.5,11.4-3.6c6.8,0.1,11.7,1.9,14.4,5.6c2.6,3.7,3.9,8.6,3.8,14.8v36.7
			H121v-36.7c0.1-5.6-1-10-3.3-13.4c-2.3-3.2-6.6-4.8-12.8-4.9c-5.7,0.1-10.1,2-13.1,5.8c-3.1,3.8-4.8,8.4-4.9,13.7v35.5h-2.2v-35.9
			c0.2-5.3-0.7-9.8-2.8-13.5c-1.1-1.7-2.7-3.1-4.7-4.1c-2.1-1-4.7-1.5-7.9-1.5c-5.8,0.1-10.3,2.5-13.6,7c-3.4,4.6-5,10-5,16.4v31.6
			h-2.2C48.5,1255.1,48.5,1199.4,48.5,1199.4z"/>
		<path class="st5" d="M179,1255.2h-2.2v-13.8l-0.2-0.1c-1,4.4-3.2,8-6.6,10.8c-3.4,2.8-7.9,4.3-13.5,4.4
			c-5.8-0.1-10.6-1.9-14.2-5.4c-3.7-3.4-5.6-8.3-5.6-14.8v-37h2.2v36.8c0.1,6.4,1.8,11,5.3,13.9c3.4,2.9,7.5,4.4,12.3,4.4
			c6.7-0.1,11.8-2.5,15.2-7.2c3.4-4.4,5.1-9.8,5.1-16.2v-31.6h2.2V1255.2z"/>
		<path class="st5" d="M228.9,1215.9c-0.1-5.6-1.7-9.6-5-12.1c-3.2-2.4-7.6-3.6-12.9-3.6c-3.8,0-6.9,0.5-9.1,1.4
			c-2.3,1-3.9,2.3-5,3.7c-1.1,1.4-1.7,2.7-2,3.9c-0.4,1.3-0.6,2.2-0.6,2.8c0,2.7,0.6,4.8,1.7,6.3c1.1,1.6,2.6,2.7,4.4,3.5
			c3.8,1.3,8.5,2.7,14.3,4.1c2.3,0.5,4.4,1.1,6.5,1.8c2.1,0.6,4,1.4,5.8,2.5c1.7,1,3.1,2.4,4.1,4.1s1.5,3.9,1.5,6.6
			c-0.1,5.5-2.3,9.5-6.4,11.9c-4,2.4-8.6,3.6-13.8,3.6c-15,0.1-22.5-6.7-22.5-20.4h2.2c0.1,12.2,6.9,18.3,20.4,18.2
			c4.3,0,8.3-1,12.1-3.1c3.8-2,5.8-5.4,5.9-10.1c0-2.5-0.5-4.5-1.5-6.1c-1.1-1.5-2.6-2.7-4.4-3.7c-1.7-1-3.8-1.8-6.1-2.4
			c-1.1-0.4-2.3-0.7-3.5-1c-1.2-0.2-2.4-0.4-3.7-0.6c-5.2-1.2-9.4-2.5-12.5-3.8c-4.5-1.8-6.7-5.6-6.7-11.5c-0.1-3.3,1.4-6.4,4.3-9.3
			c1.5-1.5,3.5-2.6,5.9-3.5c2.4-0.8,5.3-1.2,8.7-1.2c13.1-0.1,19.8,5.8,20.1,17.8h-2.2V1215.9z"/>
		<path class="st5" d="M246.6,1188.6h-2.2v-10.9h2.2V1188.6z M246.6,1255.2h-2.2v-55.8h2.2V1255.2z"/>
		<path class="st5" d="M303.9,1236.3c-1.9,13.2-9.5,19.9-22.8,20.3c-7.9-0.2-14-3-18.2-8.4c-4.3-5.3-6.5-11.9-6.5-19.7
			c0-8.4,2.1-15.5,6.4-21.4c4.2-5.9,10.8-8.9,19.6-9c5.4,0,10,1.5,14,4.6c3.9,3.1,6.3,7.7,7,13.7h-2.2c-0.9-5.5-3.1-9.5-6.5-12.2
			c-3.5-2.6-7.6-3.9-12.3-3.9c-4.4,0-8.1,0.8-11.2,2.5c-3,1.7-5.5,3.9-7.4,6.6c-3.6,5.8-5.4,12.2-5.3,19.1c0,7.1,1.9,13.1,5.8,18.1
			c3.8,5.2,9.4,7.8,16.8,7.9c5.6,0,10.4-1.6,14.2-4.9c3.7-3.3,5.8-7.7,6.4-13.2L303.9,1236.3z"/>
		<path class="st5" d="M317.1,1188.6h-2.2v-10.9h2.2V1188.6z M317.1,1255.2h-2.2v-55.8h2.2V1255.2z"/>
		<path class="st5" d="M329.4,1216.7c0.3-5.4,2.2-9.9,5.7-13.3c3.4-3.4,8.6-5.1,15.5-5.2c5.1-0.1,9.4,1,12.9,3.3
			c3.4,2.4,5.2,6.6,5.5,12.6v35.6c0.1,1.9,0.9,3.1,2.5,3.3c0.7,0.1,1.4,0.2,2.3,0.2c0.8-0.1,1.6-0.1,2.3-0.1v2.1c-1,0-2,0-3-0.1
			c-1.1,0-2.1-0.1-3-0.4c-2.1-0.6-3.1-2.2-3.2-4.9v-7.3h-0.2c-1.2,3.7-3.7,6.9-7.5,9.7c-4,2.8-8.9,4.3-14.7,4.3
			c-5.6,0-10.1-1.3-13.4-3.9c-3.4-2.5-5.1-6.3-5.2-11.2c0-3.5,0.6-6.3,1.7-8.5c1.1-2.1,2.6-3.7,4.4-4.9c1.9-1.2,3.9-2,6.2-2.5
			c2.2-0.5,4.5-0.8,6.8-0.8c3.9-0.2,7.2-0.5,10-0.7s5-0.6,6.7-1.1s3-1.4,3.9-2.5c0.8-1.2,1.2-2.8,1.2-4.8c0-1.8-0.1-3.6-0.3-5.4
			c-0.4-1.8-1.1-3.5-2.2-5c-1-1.6-2.6-2.8-4.7-3.7c-2.3-0.9-5.2-1.4-9-1.4c-11.7,0.1-18.1,5.6-19,16.5L329.4,1216.7z M366.8,1222.5
			h-0.2c-0.6,0.9-1.7,1.7-3.1,2.3c-1.5,0.6-3.3,0.9-5.3,1.2c-4,0.4-8.4,0.8-13.1,1c-2.2,0.1-4.3,0.3-6.2,0.7c-2,0.5-3.9,1.3-5.6,2.3
			c-1.7,0.9-2.9,2.3-3.8,4.3c-1,1.8-1.5,4.2-1.5,7.3c0,1.5,0.3,3.1,1,4.7c0.5,1.5,1.4,2.9,2.8,4.1c2.4,2.7,6.5,4.1,12.5,4.1
			c7.3-0.1,12.9-2.3,16.8-6.8c3.8-4.3,5.7-9.3,5.7-14.9L366.8,1222.5L366.8,1222.5z"/>
		<path class="st5" d="M383.2,1199.4h2.2v13.8h0.2c1.1-4.4,3.3-8,6.8-10.9c3.4-2.8,7.8-4.2,13.2-4.3c6,0,10.8,1.7,14.3,5.1
			c3.6,3.5,5.4,8.5,5.5,15v37h-2.2v-36.7c-0.1-6.4-1.8-11.1-5.2-14c-3.4-2.8-7.5-4.2-12.4-4.2c-6.7,0.1-11.7,2.5-15.1,7
			c-3.5,4.6-5.2,10-5.2,16.4v31.6h-2.2v-55.8H383.2z"/>
		<path class="st5" d="M43.7,1230v-5.4h389.5v5.4H43.7z"/>
	</g>
</g>
<g id="Drawing">
	<path class="st6" d="M1385.9,96.6c2.1,14.1-16,23.5-16,23.5c-56.5,26.8-70.1,64.9-70.1,64.9c-11.1,13.9-32.7,10.6-32.7,10.6
		c9.7,6.3,27.5,7.1,27.5,7.1c-29.5,10.8-42.4,55.1-42.8,56.4"/>
	<path class="st6" d="M1251.8,259.1L1251.8,259.1c3.8-10.8,30.6-25.9,30.6-25.9c-1.2,5.6-22.3,31.8-22.3,31.8
		c2.6,0.2,13.4-6.8,14.7-7.7"/>
	<path class="st6" d="M1274.9,257.3L1274.9,257.3c-17.4,12.5-29.9,70.4-29.9,70.4h6.4c-4,4.5-16.9,94.9-16.9,94.9
		s-13.2,44.3-23.5,63c-10.2,18.7-12.2,36.7-12.2,36.7l-1.2,30.3l-7.2,9.9c-140.7-15.1-218.8,105.9-218.8,105.9
		C819.1,762,863.4,741.8,767.8,829.8s-82.7,263.8-81,283.2c1.2,13.2-0.6,138.1-1.9,216.8c-0.4,22.6-0.7,41.4-0.9,52.6l0,0
		c-0.1,4.1-0.1,7.2-0.2,9.1c0,1.4,0,2.2,0,2.2c-0.8,1.6-1.5,3.3-2,5.2c-0.9,2.9-1.7,6.1-2.2,9.4c-1,6.1-1.5,12.7-1.7,18.8
		c0,1.8-0.1,3.7-0.1,5.4c-0.1,9.9,0.5,17.9,0.3,19.8c-0.3,4.2-10.9,16.2-11.6,19.2c-0.7,2.9,0.8,12.6,0.8,12.6l-7.9,6.9"/>
	<path class="st6" d="M1392.3,104.1c0,0,11.5-20.5,53.2-6.4c0,0-34.4,0-37.2,6.4"/>
	<path class="st6" d="M1409,86.2c0,0,8.2-26.1,46.8-10.8c0,0,59.8-11.3,63.5-17.9c0,0-8,13.4-9.6,14.4c0,0,15.2-7.5,54.8,9.8
		s60.5,13.1,60.5,13.1l8.2,5.9c0,0,56.5,34.1,61.4,56.7s56.5,10.8,57.6,0c0,0,12.9,24.2,3.3,29.9c0,0,49.9,0.2,56.7-11.8
		c0,0-11.1,28-26.6,32.9c0,0,34.5,7.8,62.4,89.6c0,0,20.5,39.2,36.4,47.6l-8.1,10.9c0,0,6.4,60.7,16.6,68.8l-32.2,10
		c0,0,4.4,27.9,36.1,21.2c0,0-9.7,10.6-13.1,12c0,0,4.1,26.8,16.4,28.2c0,0-35,8.1-50.3,6.5c0,0,5.9,12.5,10.9,14
		c0,0-14.1,0.4-22.5-7.4c0,0,6.2,29.2-41.6,43.7c0,0-17.3,7.2-20.8,12.4c0,0,4.2-24,19.8-32.1c0,0-21.2-9.7-22.6-41.8
		c0,0-12.5,27.7-27,34.4l-13.4,36.9c0,0,2.9,8.9,3.1,8.9s4.5-2.1,4.5-2.1l-4.8,8l5.8,0.8c0,0-11.6,3-11.3,3.1c0.4,0,7.6,1.7,7.6,1.7
		l-8,4.5l0.7,3.5l-15.3,2.7l-0.5,2.8l-9.9-5.8c0,0,1.6,53.9,4.5,58.8l31.4-13.4c0,0,100.2-22.9,123.9-35.3
		c23.6-12.4,32.8-8.1,49.4-7.4l17.6-4.2c0,0,54.7-72.7,67.4-77.3c12.7-4.6,38.2,12.1,44.2,19.1c0,0,12.2-8.2,12.9-9.3
		s10.9,0.4,11.5,2.2l13.3-9.8"/>
	<path class="st6" d="M683.8,1393.7c0,0,32-248,53.2-286.1c0,0-0.7-78.4-4.2-83.3s7.8-40.2,7.8-40.2s19.1-51.5,19.1-58.6"/>
	<path class="st6" d="M775.1,902.2c0,0,139.8-69.2,203.3,6.4c0,0,122.8,110.1,74.1,257.6c0,0-12,35.3-9.9,62.1
		c2.1,26.8-9.8,46.9-19.9,51.5s-20.3,37.4-20.3,37.4l0.5,79.1c0,0-28.7,48.9-39.3,53.4"/>
	<path class="st6" d="M975.6,1491c-3.1-4.6,1.9-10.7,3.3-18.5c1.4-7.8-9.4-27.6-9.4-27.6c0.6,1.1,128.5,32.7,174.4,19.8"/>
	<path class="st6" d="M1455.8,75.4c0,0,18.6,12.2,22.4,20"/>
	<path class="st6" d="M1422,82.1c0,0,19.6-15.5,39.7,7.8"/>
	<path class="st6" d="M1283.3,260.4c0,0-2.3,9.2,0,13.1c0,0,5.8-11.5,12.4-14.1c0,0,35.1,36.2,39.9,39.5c0,0,1.4-9.7,7.9-11.1"/>
	<path class="st6" d="M1362.2,280.3c0,0,12,26.8,20,32.5c0,0-1.9-26.4,2.4-30.4"/>
	<path class="st6" d="M1398.4,280.3c0,0,29.6,82.6,28.2,88c0,0,3.5-59.1,1.6-66.4"/>
	<path class="st6" d="M1436.3,281.7c0,0,24,56.9,73.6,88.2c0,0-5.8-26.9,8-40.6c0,0,16.3,30.9,36.3,34.4c0,0-17.5-14.5-15.7-24"/>
	<path class="st6" d="M1555.3,339.6c0,0,55.3,21.4,42.1,93.9c0,0,28.7-24.8,26.8-79.5"/>
	<path class="st6" d="M1610.6,451.8c0,0,48-38.6,48-69.2c0,0,13.2,74.4,32,86.6c0,0-8.5,46.1-33.4,68.2c0,0,64.5-47.5,69.6-73.4
		c0,0-12.2,54.6-40.5,83.3c0,0,81.8-28.2,86.6-55.3c0,0,4.2-21.9,1.8-32.6"/>
	<line class="st6" x1="1732.6" y1="563.4" x2="1728.3" y2="571.1"/>
	<path class="st6" d="M1732.1,574.6c0,0-9.3-10.2-20.1-11.6h-4.3c0,0-31.4,12.1-36.5,12.2l33.3,16.5"/>
	<path class="st6" d="M1679.1,596c-1.8,0-3.7,0.1-5.6,0.1"/>
	<path class="st6" d="M1666.4,596.1c-2.5,0-4.8,0-6.7,0.1c-0.6,0-1.1,0-1.7,0c-2.1,0-3.5,0-3.5,0s0.4,9.2,0.6,14.8
		c0.1,2.1,0.1,3.8,0.1,4.2"/>
	<path class="st6" d="M1680.9,595.9c5.1-0.1,9-0.2,9.5-0.3c1.6-0.4,4.4-8.7,4.4-8.7"/>
	<path class="st6" d="M1678.2,598.1c-0.5,0.9-1.2,2.1-2.4,3.3l0,0"/>
	<path class="st6" d="M1674.3,603c-0.7,0.6-1.5,1.2-2.3,1.8"/>
	<path class="st6" d="M1655.3,611c6.6-1.2,11.4-3,14.9-5"/>
	<path class="st6" d="M1678.9,596.4c0,0.1-0.1,0.3-0.2,0.4"/>
	<path class="st6" d="M1679.1,596L1679.1,596"/>
	<g>
		<path class="st2" d="M1658,588.5c3.6-0.5,7.3-1,11-1.3s7.4-0.5,11.1-0.3l-0.2,2c-3.5-0.4-7.2-0.3-10.9-0.2
			c-3.6,0.1-7.3,0.4-10.9,0.7L1658,588.5z"/>
	</g>
	<g>
		<path class="st2" d="M1698.5,611.6c-1.6-1.1-15.9-10.7-17.7-15.3l1.8-0.7c0.5,1.3,2.3,3.1,4.7,5.2c-1.4-1.6-2.6-3.1-3.2-4.3
			l1.8-0.9c2.3,4.6,12.6,15.8,12.7,15.9L1698.5,611.6z"/>
	</g>
	<path class="st7" d="M1691.5,610.6c-3.6-1.1-13.3-12.5-13.3-12.5c0.2-0.5,0.4-0.9,0.5-1.2l0.3-0.5h-0.1c0.1-0.2,0.1-0.4,0.1-0.4
		c0.6,0,1.2,0,1.8,0C1681.8,599.8,1691.5,610.6,1691.5,610.6z"/>
	<path class="st6" d="M1658.1,596.2c0,0,0.1,4.9,2,6.7c0,0-1.8-5.4-0.4-6.7"/>
	<path class="st7" d="M1675.9,601.4L1675.9,601.4c-0.5,0.5-1,1.1-1.6,1.6c-1.4-2-2.6-3.7-3.2-4.7c-0.2-0.3-0.6-0.1-0.6,0.2
		c0.1,1.7,0.7,4,1.4,6.3c-0.6,0.4-1.2,0.8-1.8,1.1c-2.2-5-3.7-9.9-3.7-9.9c2.2,0,4.6,0,7-0.1c0,0.1,0,0.2,0.1,0.4
		C1673.7,597.4,1674.6,599.2,1675.9,601.4L1675.9,601.4z"/>
	<path class="st7" d="M1683.8,614.5c-1.8-0.7-6.3-6.8-9.6-11.4c0.6-0.5,1.1-1.1,1.6-1.6C1678.9,606.8,1683.6,614.1,1683.8,614.5z"/>
	<line class="st6" x1="1683.8" y1="614.5" x2="1683.8" y2="614.5"/>
	<path class="st7" d="M1673.9,609.6c-2.1-1.8-4.3-5.8-6-9.7c0.7-0.4,1.3-0.8,1.8-1.1C1671.3,604,1673.9,609.6,1673.9,609.6z"/>
	<polygon class="st2" points="1679.1,596.4 1678.8,596.9 1675.9,601.4 1675.8,601.4 1673.5,596.4 	"/>
	<path class="st2" d="M1682.5,596.3c0.1,0,3.2,0.1,3.2,0.1l5,6.5v1.5l-1.3-0.5l-5.7-5.5l-1.4-1.4L1682.5,596.3z"/>
	<path class="st2" d="M1676.3,601.4c0.2,0,3.7,1.2,3.7,1.2s-2.4-2.9-2.5-3.3"/>
	<path class="st6" d="M1203.6,531.5c-0.7,1.1-6,21.1-6,21.1l9.6-13.6l1.4,3.9l6.2,1.4l1.9,3.5l10.9,2.1l1.5,2.7l4.9,0.9l1.1,4.2
		h10.7l-0.5,3.3l7.2,1.4v7.9h15.6l0.8,2.2l5.2,2l2.5,3.8v2.8c0,0,31.4-16.4,32-18l1.4,6.4l8.5-7.9l7.2,9.3c0,0,5.2-13.5,4.8-15.4
		l7.8,10.2c0,0,1.9-11.6,0.7-14.4l5.1,8.4c0,0,7-30,8.8-32.7c0.5-0.7,18.8-17.6,18.8-17.6l-6.1,19.5c0,0,28.7-32.2,33.1-35.9v13.6
		l6.4-5.6l-2.2,12.9c0,0-0.5,3.6,7.9,1.4c0,0,33.2-49.9,69-25.4l1.1,7.9l4.6,1.2l4.6,16.2l-12.2,21.9c0,0,8.6-0.2,9.5-2.3l-5.3,11.1
		l12.7-8.8v11.1l18,24.2l1.1-4.1c0,0,20.3,13.6,20.8,12.6s24.7-30.3,32.1-34.5l-6.4,10.9c0,0,14.1-7.6,25.4-8.1l2.8,5.6
		c0,0,35.1-16.1,48.7-39.5c0,0-14.3,19.2-14.5,25.2"/>
	<polyline class="st2" points="1656,611.6 1656.1,615.7 1655,617.8 1654.6,615.3 	"/>
	<path class="st6" d="M1189.2,562.3c0,0-125.8,6.7-151.5,70.2c0,0,29.3,16.2,49.8,22.2c0,0,45.5,15.2,87.5,83.6
		s115.1,98.8,115.1,98.8s11.6-8.7,15.4-8.5s13.6-13.6,13.6-13.6s67.3-33.9,79.3-33.9s21.6-6.4,21.6-6.4s11.1-11.3,18.6-11.3
		s83.5,35.5,98.1,45.4s33.4-12.7,33.4-12.7l13.2-11.8c0,0,0.2-19.3,5.9-25.4l6.6-5.4l19.5-1.2c0,0,8.2-8.5,8.7-9.6
		c0.5-1.2,3.1-8.9-1.4-14.4c0,0,23.8,0.2,24.5-12.2c0.7-12.5,0-15.3,0-15.3l8.9-16.7l21.2-4.2c0,0,37.9,3.1,31.8-29.5"/>
	<path class="st6" d="M1410.7,515.4l-8.1,9.2c0,0-6.7,67.1-5.6,69.9c0,0,21.8,37.8,28.6,39.2c1.8,0.4,18.4,5.3,23.6-12.4"/>
	<path class="st6" d="M1415.3,638.6c0,0,8,44.8,7.7,54.7s35.4,42.4,35.4,42.4"/>
	<line class="st8" x1="1521.3" y1="800.3" x2="1483.6" y2="763.5"/>
	<path class="st6" d="M1190.4,562.4c0,0-31.3,34.6-33.6,35.8c0,0-67.8,25.6-79.1,32.9"/>
	<path class="st6" d="M992.7,1473c3.3,0,101.6,8.9,137.2-5.8"/>
	<path class="st6" d="M1022.7,1392.6c10,0,72.1,1.4,84.9,1.9s96.5-19.8,100.2-25.4"/>
	<path class="st6" d="M1339,805.4c0,0,8.5,410-131.2,588.4"/>
	<path class="st6" d="M1259.3,1304.4c0,0-40.2,33.8-68.5,46.7"/>
	<path class="st6" d="M1377.6,787.9c0,0,38.4,564.6-174.7,671.9"/>
	<path class="st6" d="M1334.4,1268.2c0,0,6.4,22.4,11.1,28.1c4.7,5.6-6.3,25.6-6.3,25.6l-37,50.6"/>
	<path class="st6" d="M1339.1,1322c0,0,8.9,30.1,12.7,32.5c3.8,2.4,6.6,28.7,0,39.3c-6.6,10.6-37.2,91.1-37.2,91.1"/>
	<path class="st6" d="M1339.1,1251.9c0,0,292.2-9.5,530.8,83.7"/>
	<path class="st6" d="M1345.8,1226.3c0,0,35.6-23.4,51.8-27.6c16.2-4.2,59.3-55.8,59.3-55.8l21.9-22.6c0,0,96.7,7.1,194.1,71.3
		c0,0,70.6,52.9,99.5-3.5s-38.8-87.3-38.8-87.3s-87.5-56.7-136.9-66.6"/>
	<path class="st6" d="M1375.6,1023.2l49.6,42.4c0,0,70.2,11.6,114.7-1.8c0,0,56.5-32.3,63.5-32.8s20.3-16.2,20.3-16.2
		s10.1-3.7,22.1-4.1c0,0,6.7-3.4,7.2-10.9c0.5-7.6,15.9-8.3,16.8-9s17.3-6.7,17.6-12.9c0,0-7.9-42.4-2.8-52.9l9.7-9.4
		c0,0-0.5-16.6-2.6-18.5L1765,842c0,0,10.4-16.7,5.9-41.4c0,0-2.7-33.3-16.7-55.2"/>
	<path class="st6" d="M1431.3,1066.5c0,0-19.5,10-20.4,19.2c0,0-1.9,6.4-6.6,7.5l-38.3,24.2"/>
	<path class="st6" d="M1356.6,1176.5c0,0,21.2,2.9,42.1-30.5s66.1-51.3,66.1-51.3s45.6,11.8,55.5,16.9c9.9,5.2,77,40,77,40"/>
	<path class="st6" d="M1622.6,728.6c0,0-15.8-1.1-20.2,0.8"/>
	<path class="st6" d="M1597.9,739.9c0,0,4,7.3,7.9,8.4"/>
	<path class="st6" d="M1647.4,710.5c0,0-8,1.2-11.2,3.3s-13.5,5.8-13.5,5.8"/>
	<g>
		<path class="st2" d="M1677,681l-8-2.7l-4-1.4c-1.3-0.5-2.6-0.9-4-1.6l0.2-0.3c1.2,0.5,2.7,0.8,4,1.1l4.1,1l8.2,1.9L1677,681z"/>
	</g>
	<g>
		<path class="st2" d="M1657,648.6c-2.2,1.3-4.3,2.7-6.3,4.2c-2,1.6-3.9,3.2-5.6,5.1s-3.1,3.9-3.9,6.2c-0.4,1.1-0.6,2.3-0.6,3.4
			s0.3,2.3,0.8,3.3l0.1,0.1v0.1c0.1,0.4,0.3,1,0.6,1.5c0.3,0.5,0.6,1,1,1.5c0.8,0.9,1.9,1.6,3,2.1c2.3,1.1,5,1.4,7.6,1.5v0.5
			c-2.7,0.2-5.4,0.1-8.1-0.8c-1.3-0.5-2.6-1.2-3.7-2.1c-0.5-0.5-1-1-1.5-1.7c-0.4-0.6-0.8-1.2-1-2.1l0.1,0.3c-0.6-1.3-1-2.7-1-4.1
			s0.2-2.8,0.7-4.2c1-2.6,2.6-4.8,4.3-6.8c1.8-2,3.8-3.7,5.8-5.3c2.1-1.6,4.2-3.1,6.5-4.4L1657,648.6z"/>
	</g>
	<g>
		<path class="st2" d="M1513,860.5c-2.1,7.8-4.4,15.5-6.7,23.1c-2.3,7.7-4.7,15.3-7.3,23c-2.6,7.6-5.2,15.2-8.2,22.6
			c-1.5,3.7-3.1,7.4-4.8,11c-1.8,3.6-3.7,7.2-6.5,10.2l-0.6-0.6c2.6-2.9,4.5-6.5,6.2-10.1s3.2-7.3,4.7-11c2.9-7.5,5.5-15,7.9-22.7
			c2.5-7.6,4.8-15.3,7-23s4.4-15.4,6.4-23.2L1513,860.5z"/>
	</g>
	<g>
		<path class="st2" d="M1515.5,867.5c0.2,4.3,0.4,8.7,0.4,13c0.1,4.3,0,8.7-0.1,13s-0.4,8.7-0.9,13s-1.1,8.6-2.4,12.8l-1-0.3
			c1.2-4.1,1.7-8.4,2.1-12.6c0.4-4.3,0.6-8.6,0.6-12.9c0.1-4.3,0-8.6-0.1-12.9s-0.3-8.6-0.7-12.9L1515.5,867.5z"/>
	</g>
	<path class="st6" d="M1662.2,715.1c0,0-7.8,135.4,102.8,126.8"/>
	<line class="st6" x1="1662.7" y1="732.8" x2="1673.5" y2="704.2"/>
	<path class="st6" d="M1717.4,834.9l33.9-86.6c-54.4,16.9-64.4-68.6-64.4-68.6l-13.4,24.5c-2.6,1.9-11.3,10.9-11.3,10.9l-26.9,40.5
		h-7.3c-26.1,8.7-33.4,21.9-33.4,21.9l-14.9,43.9c-2.8-2.5-12.2-3.5-12.2-3.5c0,2.1-4.7,16.9-4.7,16.9s-2,5.3-5.2,2.5
		s-9.9-4.2-9.9-4.2c-14.1,3.5-35.6,27.2-35.6,27.2c1.4-15.5-17.3-27.9-25.1-30c-7.8-2.1-12.7-8.8-12.7-8.8
		c-2.1-13.8-31.1-53.6-35.6-57.8c-0.4-0.4-22.4-3.1-29.8-1.4"/>
	<path class="st6" d="M1751.3,748.3c0,0,9.5-9.9,11.6-12.7l41.3,11.3c0,0,16.2,16.6,17.6,18s23.3,12.9,30.4,11.4L1830,808
		c0,0,1.1,10.6,15.2,11.3l30.7-35.3l25.8,12.7c0,0,26.5,26.5,26.5,31.8c0,0,19.4,6.7,22.2-11.9c0,0,7.8-49.4-42.8-68"/>
	<line class="st6" x1="1807.7" y1="750.4" x2="1770.4" y2="796.6"/>
	<line class="st6" x1="1719.5" y1="876.2" x2="1927.8" y2="1316.6"/>
	<path class="st6" d="M1696.6,893.4c4.6,9.5,212.1,428.6,212.1,428.6"/>
	<line class="st6" x1="1683.1" y1="931.9" x2="1860.7" y2="1332.1"/>
	<path class="st6" d="M1690.6,469.3c0,0,11.1-47.3,5.9-60"/>
	<path class="st6" d="M1682.2,459.5c0,0-1-27.6,2-31.2"/>
	<path class="st6" d="M1657.2,537.5c0,0,59.3-50.8,63.5-90.1"/>
	<path class="st6" d="M1744.9,459.5c-5.5,46.9-58.5,87.9-58.5,87.9s69.2-35.5,79.5-78.1"/>
	<path class="st6" d="M1795.6,533.9c0,0,16.6,3.5,21.1,0"/>
	<path class="st6" d="M1775.9,566c0.2-1,9.6-14.2,22.8-18.6"/>
	<path class="st6" d="M1795.6,454.7c0,0-7.8,42.6,21.1,57.2"/>
	<path class="st6" d="M1849.8,503.4c0,0-5.1-14.6-6.2-21.6s-10.6-34-16.5-37.8"/>
	<path class="st6" d="M1860.6,435.4c0,0-7.5-20.4-13.6-24.1"/>
	<path class="st6" d="M1876.3,356.6c0,0-9.4,12-13.4,14.1"/>
	<path class="st6" d="M1785.7,208.3c0,0-18.8,2.1-23.4,2.5"/>
	<path class="st6" d="M1755.6,187.1c0,0-4.8,1.3-7.1,1.3"/>
	<path class="st6" d="M1804.3,746.9c0,0-45.2-88.8,65.3-131.2c0,0,16.9-7.8,24.4-13c0,0,12.2-2.8,21.7,0s44.1-0.5,45.2-0.5
		s29.6,0.9,34.4,2.1"/>
	<path class="st6" d="M1883.2,609c0,0,5.4-0.6,12.8,1.7s70.9,1.8,70.9,1.8l21.7,1.6c0,0,35.6,43.2,57.2,45.2c0,0,8.5,4.1,10.9,6.7
		c2.5,2.6,23.9,15.2,23.9,15.2"/>
	<path class="st6" d="M2080.7,697.5c0,0-5.8,14.1-23.4,11.3c0,0-62.8-27.5-82.9-44.5c0,0-34.2,4.9-44.2-3c0,0-43.1,17.8-48.7,17.9
		l-6.8,14.4c0,0-1.4,13.8,2.6,18.7c4.1,4.9,0,18.4-1.8,19.2"/>
	<path class="st6" d="M1868.6,727.4c0.4,0,15.1,10.6,15.1,10.6"/>
	<line class="st6" x1="1852.3" y1="776.3" x2="1940.8" y2="665"/>
	<line class="st6" x1="1875.9" y1="784" x2="1978.7" y2="667.7"/>
	<polyline class="st6" points="2067.5,524.9 2045.5,538.5 1987.8,614 	"/>
	<path class="st6" d="M1931.3,590.2c0,0,99.8-40.2,111.6-58.2"/>
	<line class="st6" x1="1915.6" y1="602.7" x2="2016.9" y2="575.9"/>
	<polyline class="st6" points="2005.6,632.4 2068.5,558 2080.7,533.9 	"/>
	<path class="st6" d="M2080.7,554c0,0-11.5,2.6-12.2,4c0,0-17.4-9.7-19.9-14.4"/>
	<path class="st6" d="M2030.7,602.7c0,0,41.4-1,50.1-9.5"/>
	<path class="st6" d="M2020.2,645.6c0,0,58-11.9,60.6-16.6"/>
	<g>
		<polygon class="st2" points="2052.6,540 2074.6,525.1 2075,525.8 2053.8,541.6 		"/>
	</g>
	<g>
		<polygon class="st2" points="2044.4,550.8 2004.8,601.8 2004,601.2 2042.9,549.6 		"/>
	</g>
	<polyline class="st2" points="1663.9,597 1665.1,597.8 1666.1,596.9 1665.3,596.3 	"/>
	<path class="st2" d="M1660.9,596.3c-0.1,0.1-0.6,0.9-0.6,0.9s4,4.6,4.8,4.9c0,0-1-4.5-0.4-5.3"/>
</g>
</svg>
